<svg width="22" height="24" viewBox="0 0 22 24" fill="none" xmlns="http://www.w3.org/2000/svg">
<path d="M21.6911 21.9767L17.6125 17.56C19.1957 15.4049 19.9624 12.6695 19.7549 9.91628C19.5475 7.16303 18.3817 4.60118 16.4973 2.75751C14.6128 0.913839 12.153 -0.0715191 9.62348 0.00404582C7.09401 0.0796108 4.6872 1.21035 2.89792 3.16377C1.10865 5.11719 0.0729212 7.74481 0.00370586 10.5063C-0.0655094 13.2678 0.83705 15.9534 2.5258 18.0107C4.21455 20.068 6.56112 21.3407 9.08302 21.5672C11.6049 21.7937 14.1105 20.9567 16.0844 19.2283L20.13 23.645C20.2322 23.7575 20.3538 23.8468 20.4878 23.9077C20.6217 23.9686 20.7654 24 20.9106 24C21.0557 24 21.1994 23.9686 21.3333 23.9077C21.4673 23.8468 21.5889 23.7575 21.6911 23.645C21.8892 23.4212 22 23.1221 22 22.8108C22 22.4996 21.8892 22.2005 21.6911 21.9767ZM9.9171 19.2283C8.39508 19.2283 6.90725 18.7355 5.64175 17.8124C4.37624 16.8892 3.3899 15.5771 2.80745 14.0419C2.225 12.5068 2.07261 10.8175 2.36953 9.18784C2.66646 7.55813 3.39938 6.06115 4.47561 4.88619C5.55183 3.71124 6.92303 2.91108 8.41579 2.58691C9.90856 2.26274 11.4559 2.42912 12.862 3.065C14.2682 3.70088 15.47 4.77771 16.3156 6.15931C17.1612 7.54091 17.6125 9.16523 17.6125 10.8269C17.6125 13.0551 16.8018 15.192 15.3586 16.7675C13.9154 18.3431 11.958 19.2283 9.9171 19.2283Z" fill="#807E7E"/>
</svg>
