<svg width="18" height="18" viewBox="0 0 22 22" fill="none" xmlns="http://www.w3.org/2000/svg">
    <path d="M21.6911 20.1453L17.6125 16.0966C19.1957 14.1212 19.9624 11.6137 19.7549 9.08992C19.5475 6.56611 18.3817 4.21775 16.4973 2.52772C14.6128 0.837686 12.153 -0.0655592 9.62348 0.00370867C7.09401 0.0729766 4.6872 1.10949 2.89792 2.90013C1.10865 4.69076 0.0729212 7.09941 0.00370586 9.6308C-0.0655094 12.1622 0.83705 14.6239 2.5258 16.5098C4.21455 18.3957 6.56112 19.5624 9.08302 19.7699C11.6049 19.9775 14.1105 19.2103 16.0844 17.6259L20.13 21.6746C20.2322 21.7777 20.3538 21.8595 20.4878 21.9154C20.6217 21.9712 20.7654 22 20.9106 22C21.0557 22 21.1994 21.9712 21.3333 21.9154C21.4673 21.8595 21.5889 21.7777 21.6911 21.6746C21.8892 21.4694 22 21.1953 22 20.9099C22 20.6246 21.8892 20.3505 21.6911 20.1453ZM9.9171 17.6259C8.39508 17.6259 6.90725 17.1742 5.64175 16.328C4.37624 15.4818 3.3899 14.279 2.80745 12.8718C2.225 11.4646 2.07261 9.91609 2.36953 8.42219C2.66646 6.92829 3.39938 5.55605 4.47561 4.47901C5.55183 3.40197 6.92303 2.66849 8.41579 2.37134C9.90856 2.07418 11.4559 2.22669 12.862 2.80958C14.2682 3.39247 15.47 4.37956 16.3156 5.64603C17.1612 6.9125 17.6125 8.40146 17.6125 9.92463C17.6125 11.9671 16.8018 13.926 15.3586 15.3703C13.9154 16.8145 11.958 17.6259 9.9171 17.6259Z"
          fill="#807E7E"/>
</svg>
