<svg width="20" height="16" viewBox="0 0 20 16" fill="none" xmlns="http://www.w3.org/2000/svg">
<path d="M18.995 5H18.195C18.0916 4.55129 17.916 4.12237 17.675 3.73L18.235 3.17C18.3988 2.9787 18.4844 2.73262 18.4747 2.48095C18.465 2.22927 18.3606 1.99053 18.1825 1.81244C18.0044 1.63434 17.7657 1.53001 17.514 1.52029C17.2624 1.51057 17.0163 1.59617 16.825 1.76L16.265 2.32C15.8726 2.07901 15.4437 1.90339 14.995 1.8V1C14.995 0.734784 14.8896 0.48043 14.7021 0.292893C14.5146 0.105357 14.2602 0 13.995 0C13.7298 0 13.4754 0.105357 13.2879 0.292893C13.1003 0.48043 12.995 0.734784 12.995 1V1.8C12.5489 1.90181 12.123 2.07758 11.735 2.32L11.165 1.76C10.9737 1.59617 10.7276 1.51057 10.4759 1.52029C10.2243 1.53001 9.98551 1.63434 9.80742 1.81244C9.62932 1.99053 9.52499 2.22927 9.51527 2.48095C9.50555 2.73262 9.59116 2.9787 9.75498 3.17L10.315 3.74C10.225 3.89 10.155 4.06 10.075 4.22C9.56083 4.07487 9.02922 4.00084 8.49498 4C7.05384 3.99918 5.66054 4.5171 4.56985 5.45906C3.47916 6.40102 2.76395 7.70409 2.55498 9.13C1.74117 9.35821 1.03743 9.8732 0.573745 10.5799C0.110055 11.2865 -0.0822603 12.1371 0.0323182 12.9745C0.146897 13.8119 0.560629 14.5795 1.1971 15.1356C1.83357 15.6918 2.64978 15.9988 3.49498 16H12.665C13.8134 16 14.9147 15.5438 15.7268 14.7318C16.5388 13.9197 16.995 12.8184 16.995 11.67C16.9941 11.139 16.8923 10.613 16.695 10.12L16.825 10.24C17.0112 10.4247 17.2626 10.5289 17.525 10.53C17.6566 10.5308 17.7871 10.5055 17.9089 10.4558C18.0307 10.406 18.1415 10.3327 18.235 10.24C18.4212 10.0526 18.5258 9.79919 18.5258 9.535C18.5258 9.27081 18.4212 9.01736 18.235 8.83L17.675 8.27C17.916 7.87763 18.0916 7.44871 18.195 7H18.995C19.2602 7 19.5146 6.89464 19.7021 6.70711C19.8896 6.51957 19.995 6.26522 19.995 6C19.995 5.73478 19.8896 5.48043 19.7021 5.29289C19.5146 5.10536 19.2602 5 18.995 5ZM12.665 14H3.49498C3.09716 14 2.71563 13.842 2.43432 13.5607C2.15302 13.2794 1.99498 12.8978 1.99498 12.5C1.99498 12.1022 2.15302 11.7206 2.43432 11.4393C2.71563 11.158 3.09716 11 3.49498 11C3.7602 11 4.01455 10.8946 4.20209 10.7071C4.38962 10.5196 4.49498 10.2652 4.49498 10C4.49927 9.0557 4.8375 8.14336 5.44982 7.42447C6.06213 6.70558 6.90904 6.22651 7.84064 6.07204C8.77223 5.91757 9.72843 6.09767 10.54 6.58047C11.3516 7.06326 11.9662 7.81761 12.275 8.71C12.3321 8.88184 12.4349 9.03493 12.5723 9.15293C12.7096 9.27094 12.8765 9.34942 13.055 9.38C13.6226 9.48612 14.1306 9.79923 14.4804 10.2586C14.8303 10.718 14.9971 11.2909 14.9485 11.8663C14.8999 12.4417 14.6394 12.9785 14.2175 13.3728C13.7956 13.767 13.2423 13.9905 12.665 14ZM15.665 7.65C15.4887 7.81586 15.2859 7.95106 15.065 8.05C14.7324 7.83346 14.3726 7.66197 13.995 7.54C13.5355 6.53676 12.8134 5.67641 11.905 5.05C12.0142 4.79349 12.1702 4.55951 12.365 4.36C12.8124 3.94532 13.3999 3.71493 14.01 3.71493C14.62 3.71493 15.2076 3.94532 15.655 4.36C16.0838 4.8022 16.3237 5.394 16.3237 6.01C16.3237 6.626 16.0838 7.2178 15.655 7.66L15.665 7.65Z" fill="black"/>
</svg>
